<svg xmlns="http://www.w3.org/2000/svg" width="24" height="24" viewBox="0 0 24 24"><g transform="translate(-97.667 -167.667)"><rect width="24" height="24" transform="translate(97.667 167.667)" fill="none"/><path d="M13.885,12.062h-6.8s-4.186-1.1-5.7-6.591V2.108a1.035,1.035,0,0,1,.62-1.1H17.665" transform="translate(97.467 171.644)" fill="none" stroke="#fff" stroke-miterlimit="10" stroke-width="1"/><path d="M24.672,12.052s4.186-1.1,5.7-6.591V2.1a1.035,1.035,0,0,0-.62-1.1H23.99" transform="translate(86.628 171.649)" fill="none" stroke="#fff" stroke-miterlimit="10" stroke-width="1"/><path d="M1.79,22.92H19.7l-.958,2.124H3.092Z" transform="translate(97.271 161.14)" fill="none" stroke="#fff" stroke-miterlimit="10" stroke-width="1"/><path d="M35.1,5.46s3.087.823,2.884,3.363c0,0-.411,2.608-2.676,2.405,0,0-1.307.208-1.786-.547" transform="translate(82.06 169.511)" fill="none" stroke="#fff" stroke-miterlimit="10" stroke-width="1"/></g></svg>